<?xml version="1.0" standalone="no"?><svg xmlns="http://www.w3.org/2000/svg" viewBox="0 0 1440 320"><path fill="#01c4e7" fill-opacity="1" d="M0,64L34.3,106.7C68.6,149,137,235,206,229.3C274.3,224,343,128,411,80C480,32,549,32,617,48C685.7,64,754,96,823,106.7C891.4,117,960,107,1029,90.7C1097.1,75,1166,53,1234,42.7C1302.9,32,1371,32,1406,32L1440,32L1440,0L1405.7,0C1371.4,0,1303,0,1234,0C1165.7,0,1097,0,1029,0C960,0,891,0,823,0C754.3,0,686,0,617,0C548.6,0,480,0,411,0C342.9,0,274,0,206,0C137.1,0,69,0,34,0L0,0Z"></path></svg>